<svg xmlns="http://www.w3.org/2000/svg" xmlns:xlink="http://www.w3.org/1999/xlink" id="edcac65b-f528-4428-bf39-e3058e9645a2" data-name="Layer 1" width="900" height="600" viewBox="260 0 1000 659.5"><defs><linearGradient id="e0a7c0b6-1905-489a-9c34-9e1ea499243e" x1="1196.66765" y1="772.1466" x2="1196.66765" y2="275.08965" gradientTransform="translate(-540.54499)" gradientUnits="userSpaceOnUse"><stop offset="0" stop-color="gray" stop-opacity="0.25"/><stop offset="0.53514" stop-color="gray" stop-opacity="0.12"/><stop offset="1" stop-color="gray" stop-opacity="0.1"/></linearGradient></defs><title>instruction manual</title><ellipse cx="676.27424" cy="517.4375" rx="41.48438" ry="14.0625" fill="#2f2e41"/><ellipse cx="671.59278" cy="419.8011" rx="31.11817" ry="80.85938" transform="translate(-147.84798 133.93569) rotate(-19.92013)" fill="#2f2e41"/><circle cx="692.44611" cy="104" r="67.5" fill="#6c63ff"/><circle cx="692.44611" cy="104" r="42.1875" fill="#2f2e41"/><circle cx="883.69611" cy="104" r="67.5" fill="#6c63ff"/><circle cx="883.69611" cy="104" r="42.1875" fill="#2f2e41"/><circle cx="788.07111" cy="392.28125" r="171.5625" fill="#6c63ff"/><circle cx="788.07111" cy="192.59375" r="130.78125" fill="#6c63ff"/><circle cx="844.32111" cy="171.5" r="35.15625" fill="#2f2e41"/><circle cx="844.32111" cy="171.5" r="9.84375" fill="#fff"/><circle cx="858.38361" cy="154.625" r="4.21875" fill="#fff"/><ellipse cx="712.83674" cy="403.53125" rx="71.01563" ry="77.34375" opacity="0.1"/><path d="M944.1895,380.17057A130.7938,130.7938,0,0,0,833.07111,180.40625c-4.27033,0-8.4908.21166-12.65625.61172A130.79655,130.79655,0,0,1,918.877,380.17057,171.55614,171.55614,0,0,1,820.41486,681.9717q6.26929.45717,12.65625.4658A171.55532,171.55532,0,0,0,944.1895,380.17057Z" transform="translate(-45 -120)" opacity="0.1"/><ellipse cx="792.99299" cy="562.4375" rx="41.48438" ry="14.0625" fill="#2f2e41"/><ellipse cx="840.10236" cy="101.89063" rx="32.34375" ry="4.92188" fill="#2f2e41"/><circle cx="720.41486" cy="178.5" r="35.15625" opacity="0.1"/><circle cx="710.41486" cy="170.5" r="35.15625" fill="#2f2e41"/><circle cx="710.41486" cy="170.5" r="9.84375" fill="#fff"/><circle cx="724.47736" cy="153.625" r="4.21875" fill="#fff"/></svg>